<mxfile host="app.diagrams.net" modified="2024-04-30T21:48:34.982Z" agent="Mozilla/5.0 (Windows NT 10.0; Win64; x64) AppleWebKit/537.36 (KHTML, like Gecko) Chrome/124.0.0.0 Safari/537.36" etag="PVnJranbZ1if5vosMyDC" version="24.3.1" type="device">
  <diagram name="Page-1" id="txiFiApgbzSdFaGspPpk">
    <mxGraphModel dx="2345" dy="949" grid="0" gridSize="10" guides="1" tooltips="1" connect="1" arrows="1" fold="1" page="1" pageScale="1" pageWidth="1200" pageHeight="1920" math="0" shadow="0">
      <root>
        <mxCell id="0" />
        <mxCell id="1" parent="0" />
        <mxCell id="8bFpbsi06Q80cBJKgn1l-15" style="edgeStyle=orthogonalEdgeStyle;rounded=0;orthogonalLoop=1;jettySize=auto;html=1;exitX=0.995;exitY=0.63;exitDx=0;exitDy=0;exitPerimeter=0;entryX=0;entryY=0.5;entryDx=0;entryDy=0;flowAnimation=1;" edge="1" parent="1" source="o666pcZo8wiM9jtriRj--1" target="o666pcZo8wiM9jtriRj--3">
          <mxGeometry relative="1" as="geometry" />
        </mxCell>
        <mxCell id="o666pcZo8wiM9jtriRj--1" value="" style="aspect=fixed;sketch=0;html=1;dashed=0;whitespace=wrap;fillColor=#2875E2;strokeColor=#ffffff;points=[[0.005,0.63,0],[0.1,0.2,0],[0.9,0.2,0],[0.5,0,0],[0.995,0.63,0],[0.72,0.99,0],[0.5,1,0],[0.28,0.99,0]];shape=mxgraph.kubernetes.icon2;kubernetesLabel=1;prIcon=user" parent="1" vertex="1">
          <mxGeometry x="70" y="430" width="50" height="48" as="geometry" />
        </mxCell>
        <mxCell id="8bFpbsi06Q80cBJKgn1l-16" style="edgeStyle=orthogonalEdgeStyle;rounded=0;orthogonalLoop=1;jettySize=auto;html=1;entryX=0;entryY=0.25;entryDx=0;entryDy=0;flowAnimation=1;" edge="1" parent="1" source="o666pcZo8wiM9jtriRj--2" target="o666pcZo8wiM9jtriRj--8">
          <mxGeometry relative="1" as="geometry" />
        </mxCell>
        <mxCell id="o666pcZo8wiM9jtriRj--2" value="" style="html=1;verticalLabelPosition=bottom;align=center;labelBackgroundColor=#ffffff;verticalAlign=top;strokeWidth=2;strokeColor=#0080F0;shadow=0;dashed=0;shape=mxgraph.ios7.icons.smartphone;" parent="1" vertex="1">
          <mxGeometry x="253.5" y="400" width="18" height="30" as="geometry" />
        </mxCell>
        <mxCell id="8bFpbsi06Q80cBJKgn1l-17" style="edgeStyle=orthogonalEdgeStyle;rounded=0;orthogonalLoop=1;jettySize=auto;html=1;exitX=1;exitY=0.75;exitDx=0;exitDy=0;entryX=0;entryY=0.25;entryDx=0;entryDy=0;flowAnimation=1;" edge="1" parent="1" source="o666pcZo8wiM9jtriRj--3" target="o666pcZo8wiM9jtriRj--8">
          <mxGeometry relative="1" as="geometry" />
        </mxCell>
        <mxCell id="o666pcZo8wiM9jtriRj--3" value="" style="image;aspect=fixed;perimeter=ellipsePerimeter;html=1;align=center;shadow=0;dashed=0;spacingTop=3;image=img/lib/active_directory/laptop_client.svg;" parent="1" vertex="1">
          <mxGeometry x="240" y="470" width="45" height="50" as="geometry" />
        </mxCell>
        <mxCell id="o666pcZo8wiM9jtriRj--18" style="edgeStyle=orthogonalEdgeStyle;rounded=0;orthogonalLoop=1;jettySize=auto;html=1;exitX=1;exitY=0.5;exitDx=0;exitDy=0;entryX=0;entryY=0.5;entryDx=0;entryDy=0;flowAnimation=1;" parent="1" source="o666pcZo8wiM9jtriRj--8" target="o666pcZo8wiM9jtriRj--13" edge="1">
          <mxGeometry relative="1" as="geometry" />
        </mxCell>
        <mxCell id="8bFpbsi06Q80cBJKgn1l-19" style="edgeStyle=orthogonalEdgeStyle;rounded=0;orthogonalLoop=1;jettySize=auto;html=1;exitX=0;exitY=0;exitDx=0;exitDy=0;entryX=0.75;entryY=0;entryDx=0;entryDy=0;flowAnimation=1;" edge="1" parent="1" source="o666pcZo8wiM9jtriRj--8" target="o666pcZo8wiM9jtriRj--3">
          <mxGeometry relative="1" as="geometry">
            <Array as="points">
              <mxPoint x="380" y="430" />
              <mxPoint x="300" y="430" />
              <mxPoint x="300" y="473" />
            </Array>
          </mxGeometry>
        </mxCell>
        <mxCell id="o666pcZo8wiM9jtriRj--8" value="" style="shape=image;verticalLabelPosition=bottom;labelBackgroundColor=default;verticalAlign=top;aspect=fixed;imageAspect=0;image=data:image/png,iVBORw0KGgoAAAANSUhEUgAAAMwAAADACAMAAAB/Pny7AAAAY1BMVEX///8AAACEhIQaGhohISH5+fn29vaurq4YGBg6OjoWFhYxMTEdHR3AwMAMDAzFxcXh4eFDQ0Ojo6OXl5fv7+/MzMy2trYsLCyOjo54eHjY2NhUVFSdnZ1tbW1ycnJJSUldXV3OtJMZAAACzUlEQVR4nO3W63KqMBSG4SyIyFlFjiLa+7/KnXgoR7s7U6s/+j7TGRFhmo+sLKIUAAAAAAAAAAAAAAAAAAAAAAAAAAAAAAAA8Md47x7AMyXddnaubJzafKw65wuH8T2H2nGaxlPZ0rWn7DVhNjvZrybn9pJG5sMT13cfCcNseNs6Cl0556pLP2/x/dthmh5fk0UlQZpGxTSMH1zC6FgeCWNp8s87HN+NZe8dqsEVsdbXg2oyib+oltSVbjQ5e3FvYap9uZ4oL7Kd6HR3G+X2w3yRjVolA5sqDp2NPXjlsiwiiVNZL4WJo4cPddtJHEppD8sg1BLMll4Upi9aKp/KzFONLZqgL5o+TFU8vtOsLC1OrurU11Lns9/fEGYTmGdaVPYxO/dzg5mZt7peEomWNkhNiSULP78jzE7EjPhoH7Mp+4t+zZhFPORKO6w7u1ZcV8ty5LeECW0YlbdihtVezvVhdDxsxyL1pIs7Emp3Ny8x641hTNWI7Un2/w9mZtSOo3k1lZUpteU0y2G80rSaPOvO5y47TF9wP9WHUbYRaEm3310zm6rL1fZ8bctzy2Hy+mQeW+Acj051bYZPNAyjttosAnG+183MMpO0sKXmx7P6U4/DNCbPs6fkZhRGqczUmvnz//ueyTvRoWT2hbjWpnmcZ6X2MIwtaAnaU7a81n5gEkap1u5D/H5mViNefn2ohdkByH3ebKmJTCfxYZiVWhVZ3bTyu2V2HWc/Mwt7s+v41raTD/bbJ4nj6YZ1GMYr71EvYW4nm4VX7Q/DpDJd5Y6k99Y8Et/Gn5tl4stxOPZMh9NSG4bZmN8SvTcbu0Zq02CadZlkH6M91DMkgczCqDzSlzDTnfJ1K29KzLTpSQM72JOjrma+7u/HW92owonsFvqYm87c2os/vuguT/XsagYAAAAAAAAAAAAAAAAAAAAAAAAAAAAAAAAA4G/5B6kYI/yQicQRAAAAAElFTkSuQmCC;fillColor=#6EFF63;strokeColor=default;shadow=1;" parent="1" vertex="1">
          <mxGeometry x="380" y="450" width="164" height="154.35" as="geometry" />
        </mxCell>
        <mxCell id="o666pcZo8wiM9jtriRj--22" style="edgeStyle=orthogonalEdgeStyle;rounded=0;orthogonalLoop=1;jettySize=auto;html=1;exitX=0.15;exitY=0.05;exitDx=0;exitDy=0;exitPerimeter=0;flowAnimation=1;" parent="1" source="o666pcZo8wiM9jtriRj--12" target="o666pcZo8wiM9jtriRj--17" edge="1">
          <mxGeometry relative="1" as="geometry" />
        </mxCell>
        <mxCell id="o666pcZo8wiM9jtriRj--12" value="" style="shape=datastore;whiteSpace=wrap;html=1;" parent="1" vertex="1">
          <mxGeometry x="511.07" y="670" width="150" height="130" as="geometry" />
        </mxCell>
        <mxCell id="o666pcZo8wiM9jtriRj--9" value="Application" style="text;html=1;align=center;verticalAlign=middle;resizable=0;points=[];autosize=1;strokeColor=none;fillColor=none;" parent="1" vertex="1">
          <mxGeometry x="420" y="530" width="80" height="30" as="geometry" />
        </mxCell>
        <mxCell id="o666pcZo8wiM9jtriRj--10" value="&lt;b&gt;&lt;font face=&quot;Times New Roman&quot;&gt;Deal Checker&lt;/font&gt;&lt;/b&gt;" style="text;html=1;align=center;verticalAlign=middle;resizable=0;points=[];autosize=1;strokeColor=none;fillColor=none;" parent="1" vertex="1">
          <mxGeometry x="417" y="470" width="90" height="30" as="geometry" />
        </mxCell>
        <mxCell id="o666pcZo8wiM9jtriRj--20" style="edgeStyle=orthogonalEdgeStyle;rounded=0;orthogonalLoop=1;jettySize=auto;html=1;entryX=1;entryY=0.75;entryDx=0;entryDy=0;flowAnimation=1;" parent="1" source="o666pcZo8wiM9jtriRj--11" target="o666pcZo8wiM9jtriRj--8" edge="1">
          <mxGeometry relative="1" as="geometry" />
        </mxCell>
        <mxCell id="o666pcZo8wiM9jtriRj--11" value="" style="sketch=0;outlineConnect=0;fontColor=#232F3E;gradientColor=none;fillColor=#232F3D;strokeColor=none;dashed=0;verticalLabelPosition=bottom;verticalAlign=top;align=center;html=1;fontSize=12;fontStyle=0;aspect=fixed;pointerEvents=1;shape=mxgraph.aws4.saml_token;" parent="1" vertex="1">
          <mxGeometry x="680" y="600" width="30" height="30" as="geometry" />
        </mxCell>
        <mxCell id="o666pcZo8wiM9jtriRj--6" value="" style="dashed=0;outlineConnect=0;html=1;align=center;labelPosition=center;verticalLabelPosition=bottom;verticalAlign=top;shape=mxgraph.webicons.mongodb;gradientColor=#DFDEDE" parent="1" vertex="1">
          <mxGeometry x="554.8699999999999" y="718" width="62.4" height="60" as="geometry" />
        </mxCell>
        <mxCell id="o666pcZo8wiM9jtriRj--19" style="edgeStyle=orthogonalEdgeStyle;rounded=0;orthogonalLoop=1;jettySize=auto;html=1;exitX=0.5;exitY=1;exitDx=0;exitDy=0;entryX=1;entryY=0.5;entryDx=0;entryDy=0;flowAnimation=1;" parent="1" source="o666pcZo8wiM9jtriRj--13" target="o666pcZo8wiM9jtriRj--12" edge="1">
          <mxGeometry relative="1" as="geometry" />
        </mxCell>
        <mxCell id="o666pcZo8wiM9jtriRj--21" style="edgeStyle=orthogonalEdgeStyle;rounded=0;orthogonalLoop=1;jettySize=auto;html=1;exitX=0;exitY=0.3;exitDx=0;exitDy=0;flowAnimation=1;" parent="1" source="o666pcZo8wiM9jtriRj--13" target="o666pcZo8wiM9jtriRj--11" edge="1">
          <mxGeometry relative="1" as="geometry" />
        </mxCell>
        <mxCell id="o666pcZo8wiM9jtriRj--13" value="" style="shape=datastore;whiteSpace=wrap;html=1;" parent="1" vertex="1">
          <mxGeometry x="720" y="600" width="90" height="80" as="geometry" />
        </mxCell>
        <mxCell id="o666pcZo8wiM9jtriRj--7" value="" style="image;sketch=0;aspect=fixed;html=1;points=[];align=center;fontSize=12;image=img/lib/mscae/Cache_Redis_Product.svg;" parent="1" vertex="1">
          <mxGeometry x="741.0699999999999" y="630" width="47.86" height="40.2" as="geometry" />
        </mxCell>
        <mxCell id="o666pcZo8wiM9jtriRj--16" value="" style="sketch=0;outlineConnect=0;fontColor=#232F3E;gradientColor=none;fillColor=#232F3D;strokeColor=none;dashed=0;verticalLabelPosition=bottom;verticalAlign=top;align=center;html=1;fontSize=12;fontStyle=0;aspect=fixed;pointerEvents=1;shape=mxgraph.aws4.saml_token;" parent="1" vertex="1">
          <mxGeometry x="340.00000000000006" y="494" width="30" height="30" as="geometry" />
        </mxCell>
        <mxCell id="o666pcZo8wiM9jtriRj--23" style="edgeStyle=orthogonalEdgeStyle;rounded=0;orthogonalLoop=1;jettySize=auto;html=1;flowAnimation=1;" parent="1" source="o666pcZo8wiM9jtriRj--17" target="o666pcZo8wiM9jtriRj--8" edge="1">
          <mxGeometry relative="1" as="geometry" />
        </mxCell>
        <mxCell id="o666pcZo8wiM9jtriRj--17" value="" style="sketch=0;outlineConnect=0;fontColor=#232F3E;gradientColor=none;fillColor=#232F3D;strokeColor=none;dashed=0;verticalLabelPosition=bottom;verticalAlign=top;align=center;html=1;fontSize=12;fontStyle=0;aspect=fixed;pointerEvents=1;shape=mxgraph.aws4.saml_token;" parent="1" vertex="1">
          <mxGeometry x="500" y="650" width="30" height="30" as="geometry" />
        </mxCell>
        <mxCell id="o666pcZo8wiM9jtriRj--28" style="edgeStyle=orthogonalEdgeStyle;rounded=0;orthogonalLoop=1;jettySize=auto;html=1;entryX=0.5;entryY=0;entryDx=0;entryDy=0;flowAnimation=1;" parent="1" source="o666pcZo8wiM9jtriRj--27" target="o666pcZo8wiM9jtriRj--13" edge="1">
          <mxGeometry relative="1" as="geometry" />
        </mxCell>
        <mxCell id="o666pcZo8wiM9jtriRj--27" value="Processed Data" style="sketch=0;outlineConnect=0;fontColor=#232F3E;gradientColor=none;fillColor=#8C4FFF;strokeColor=none;dashed=0;verticalLabelPosition=bottom;verticalAlign=top;align=center;html=1;fontSize=12;fontStyle=0;aspect=fixed;pointerEvents=1;shape=mxgraph.aws4.datazone_data_projects;" parent="1" vertex="1">
          <mxGeometry x="819.9966666666668" y="470" width="78" height="78" as="geometry" />
        </mxCell>
        <mxCell id="o666pcZo8wiM9jtriRj--29" style="edgeStyle=orthogonalEdgeStyle;rounded=0;orthogonalLoop=1;jettySize=auto;html=1;entryX=1.011;entryY=0.333;entryDx=0;entryDy=0;entryPerimeter=0;flowAnimation=1;" parent="1" source="o666pcZo8wiM9jtriRj--27" target="o666pcZo8wiM9jtriRj--8" edge="1">
          <mxGeometry relative="1" as="geometry" />
        </mxCell>
        <mxCell id="o666pcZo8wiM9jtriRj--30" value="Processed Data" style="edgeLabel;html=1;align=center;verticalAlign=middle;resizable=0;points=[];" parent="o666pcZo8wiM9jtriRj--29" vertex="1" connectable="0">
          <mxGeometry x="0.3617" relative="1" as="geometry">
            <mxPoint as="offset" />
          </mxGeometry>
        </mxCell>
        <mxCell id="8bFpbsi06Q80cBJKgn1l-8" style="edgeStyle=orthogonalEdgeStyle;rounded=0;orthogonalLoop=1;jettySize=auto;html=1;exitX=0.93;exitY=0.5;exitDx=0;exitDy=0;exitPerimeter=0;flowAnimation=1;" edge="1" parent="1" source="8bFpbsi06Q80cBJKgn1l-1" target="8bFpbsi06Q80cBJKgn1l-5">
          <mxGeometry relative="1" as="geometry" />
        </mxCell>
        <mxCell id="8bFpbsi06Q80cBJKgn1l-1" value="" style="sketch=0;aspect=fixed;pointerEvents=1;shadow=0;dashed=0;html=1;strokeColor=none;labelPosition=center;verticalLabelPosition=bottom;verticalAlign=top;align=center;shape=mxgraph.mscae.enterprise.website_generic;fillColor=#7D7D7D;" vertex="1" parent="1">
          <mxGeometry x="516.0699999999999" y="80" width="80" height="70.4" as="geometry" />
        </mxCell>
        <mxCell id="8bFpbsi06Q80cBJKgn1l-9" style="edgeStyle=orthogonalEdgeStyle;rounded=0;orthogonalLoop=1;jettySize=auto;html=1;exitX=0.93;exitY=0.5;exitDx=0;exitDy=0;exitPerimeter=0;flowAnimation=1;" edge="1" parent="1" source="8bFpbsi06Q80cBJKgn1l-2" target="8bFpbsi06Q80cBJKgn1l-5">
          <mxGeometry relative="1" as="geometry" />
        </mxCell>
        <mxCell id="8bFpbsi06Q80cBJKgn1l-2" value="" style="sketch=0;aspect=fixed;pointerEvents=1;shadow=0;dashed=0;html=1;strokeColor=none;labelPosition=center;verticalLabelPosition=bottom;verticalAlign=top;align=center;shape=mxgraph.mscae.enterprise.website_generic;fillColor=#7D7D7D;" vertex="1" parent="1">
          <mxGeometry x="516.0699999999999" y="156.39999999999998" width="80" height="70.4" as="geometry" />
        </mxCell>
        <mxCell id="8bFpbsi06Q80cBJKgn1l-3" value="" style="sketch=0;aspect=fixed;pointerEvents=1;shadow=0;dashed=0;html=1;strokeColor=none;labelPosition=center;verticalLabelPosition=bottom;verticalAlign=top;align=center;shape=mxgraph.mscae.enterprise.website_generic;fillColor=#7D7D7D;" vertex="1" parent="1">
          <mxGeometry x="511.07" y="236.39999999999998" width="80" height="70.4" as="geometry" />
        </mxCell>
        <mxCell id="8bFpbsi06Q80cBJKgn1l-11" style="edgeStyle=orthogonalEdgeStyle;rounded=0;orthogonalLoop=1;jettySize=auto;html=1;exitX=0.93;exitY=0.5;exitDx=0;exitDy=0;exitPerimeter=0;flowAnimation=1;" edge="1" parent="1" source="8bFpbsi06Q80cBJKgn1l-4" target="8bFpbsi06Q80cBJKgn1l-5">
          <mxGeometry relative="1" as="geometry" />
        </mxCell>
        <mxCell id="8bFpbsi06Q80cBJKgn1l-4" value="" style="sketch=0;aspect=fixed;pointerEvents=1;shadow=0;dashed=0;html=1;strokeColor=none;labelPosition=center;verticalLabelPosition=bottom;verticalAlign=top;align=center;shape=mxgraph.mscae.enterprise.website_generic;fillColor=#7D7D7D;" vertex="1" parent="1">
          <mxGeometry x="511.07" y="312.79999999999995" width="80" height="70.4" as="geometry" />
        </mxCell>
        <mxCell id="8bFpbsi06Q80cBJKgn1l-12" style="edgeStyle=orthogonalEdgeStyle;rounded=0;orthogonalLoop=1;jettySize=auto;html=1;flowAnimation=1;" edge="1" parent="1" source="8bFpbsi06Q80cBJKgn1l-5" target="8bFpbsi06Q80cBJKgn1l-6">
          <mxGeometry relative="1" as="geometry" />
        </mxCell>
        <mxCell id="8bFpbsi06Q80cBJKgn1l-5" value="Web Scraper" style="image;aspect=fixed;html=1;points=[];align=center;fontSize=12;image=img/lib/azure2/general/Bug.svg;" vertex="1" parent="1">
          <mxGeometry x="701.5699999999999" y="196.39999999999998" width="59" height="64" as="geometry" />
        </mxCell>
        <mxCell id="8bFpbsi06Q80cBJKgn1l-13" style="edgeStyle=orthogonalEdgeStyle;rounded=0;orthogonalLoop=1;jettySize=auto;html=1;flowAnimation=1;" edge="1" parent="1" source="8bFpbsi06Q80cBJKgn1l-6" target="8bFpbsi06Q80cBJKgn1l-7">
          <mxGeometry relative="1" as="geometry">
            <mxPoint x="955.0699999999999" y="228.39999999999998" as="sourcePoint" />
          </mxGeometry>
        </mxCell>
        <mxCell id="8bFpbsi06Q80cBJKgn1l-6" value="Unstructured HTML Data" style="shape=image;html=1;verticalAlign=top;verticalLabelPosition=bottom;labelBackgroundColor=#ffffff;imageAspect=0;aspect=fixed;image=https://cdn4.iconfinder.com/data/icons/file-extension-names-vol-8/512/19-128.png" vertex="1" parent="1">
          <mxGeometry x="827.0699999999999" y="164.39999999999998" width="128" height="128" as="geometry" />
        </mxCell>
        <mxCell id="8bFpbsi06Q80cBJKgn1l-24" style="edgeStyle=orthogonalEdgeStyle;rounded=0;orthogonalLoop=1;jettySize=auto;html=1;flowAnimation=1;" edge="1" parent="1" source="8bFpbsi06Q80cBJKgn1l-7" target="o666pcZo8wiM9jtriRj--27">
          <mxGeometry relative="1" as="geometry">
            <Array as="points">
              <mxPoint x="1066" y="380" />
              <mxPoint x="859" y="380" />
            </Array>
          </mxGeometry>
        </mxCell>
        <mxCell id="8bFpbsi06Q80cBJKgn1l-7" value="Extracted Web Data" style="image;html=1;image=img/lib/clip_art/computers/Database_128x128.png" vertex="1" parent="1">
          <mxGeometry x="1026.07" y="188.39999999999998" width="80" height="80" as="geometry" />
        </mxCell>
        <mxCell id="8bFpbsi06Q80cBJKgn1l-10" style="edgeStyle=orthogonalEdgeStyle;rounded=0;orthogonalLoop=1;jettySize=auto;html=1;exitX=1;exitY=0.7;exitDx=0;exitDy=0;exitPerimeter=0;entryX=-0.051;entryY=0.781;entryDx=0;entryDy=0;entryPerimeter=0;flowAnimation=1;" edge="1" parent="1" source="8bFpbsi06Q80cBJKgn1l-3" target="8bFpbsi06Q80cBJKgn1l-5">
          <mxGeometry relative="1" as="geometry" />
        </mxCell>
        <mxCell id="8bFpbsi06Q80cBJKgn1l-14" style="edgeStyle=orthogonalEdgeStyle;rounded=0;orthogonalLoop=1;jettySize=auto;html=1;exitX=0.995;exitY=0.63;exitDx=0;exitDy=0;exitPerimeter=0;entryX=0.028;entryY=0.7;entryDx=0;entryDy=0;entryPerimeter=0;flowAnimation=1;" edge="1" parent="1" source="o666pcZo8wiM9jtriRj--1" target="o666pcZo8wiM9jtriRj--2">
          <mxGeometry relative="1" as="geometry" />
        </mxCell>
        <mxCell id="8bFpbsi06Q80cBJKgn1l-18" style="edgeStyle=orthogonalEdgeStyle;rounded=0;orthogonalLoop=1;jettySize=auto;html=1;exitX=0;exitY=0;exitDx=0;exitDy=0;entryX=0.417;entryY=0;entryDx=0;entryDy=0;entryPerimeter=0;flowAnimation=1;" edge="1" parent="1" source="o666pcZo8wiM9jtriRj--8" target="o666pcZo8wiM9jtriRj--2">
          <mxGeometry relative="1" as="geometry" />
        </mxCell>
        <mxCell id="8bFpbsi06Q80cBJKgn1l-20" style="edgeStyle=orthogonalEdgeStyle;rounded=0;orthogonalLoop=1;jettySize=auto;html=1;exitX=0.5;exitY=0;exitDx=0;exitDy=0;entryX=0.003;entryY=0.329;entryDx=0;entryDy=0;entryPerimeter=0;flowAnimation=1;" edge="1" parent="1" source="o666pcZo8wiM9jtriRj--8" target="8bFpbsi06Q80cBJKgn1l-1">
          <mxGeometry relative="1" as="geometry" />
        </mxCell>
        <mxCell id="8bFpbsi06Q80cBJKgn1l-21" style="edgeStyle=orthogonalEdgeStyle;rounded=0;orthogonalLoop=1;jettySize=auto;html=1;exitX=0.5;exitY=0;exitDx=0;exitDy=0;entryX=0;entryY=0.5;entryDx=0;entryDy=0;entryPerimeter=0;flowAnimation=1;" edge="1" parent="1" source="o666pcZo8wiM9jtriRj--8" target="8bFpbsi06Q80cBJKgn1l-2">
          <mxGeometry relative="1" as="geometry" />
        </mxCell>
        <mxCell id="8bFpbsi06Q80cBJKgn1l-22" style="edgeStyle=orthogonalEdgeStyle;rounded=0;orthogonalLoop=1;jettySize=auto;html=1;exitX=0.5;exitY=0;exitDx=0;exitDy=0;entryX=0;entryY=0.5;entryDx=0;entryDy=0;entryPerimeter=0;flowAnimation=1;" edge="1" parent="1" source="o666pcZo8wiM9jtriRj--8" target="8bFpbsi06Q80cBJKgn1l-3">
          <mxGeometry relative="1" as="geometry" />
        </mxCell>
        <mxCell id="8bFpbsi06Q80cBJKgn1l-23" style="edgeStyle=orthogonalEdgeStyle;rounded=0;orthogonalLoop=1;jettySize=auto;html=1;exitX=0.5;exitY=0;exitDx=0;exitDy=0;entryX=0;entryY=0.5;entryDx=0;entryDy=0;entryPerimeter=0;flowAnimation=1;" edge="1" parent="1" source="o666pcZo8wiM9jtriRj--8" target="8bFpbsi06Q80cBJKgn1l-4">
          <mxGeometry relative="1" as="geometry" />
        </mxCell>
      </root>
    </mxGraphModel>
  </diagram>
</mxfile>
